<svg width="37" height="31" viewBox="0 0 37 31" fill="none" xmlns="http://www.w3.org/2000/svg">
<path fill-rule="evenodd" clip-rule="evenodd" d="M27.9076 1.19061C27.7856 1.3546 27.5009 1.93955 27.275 2.49071L26.8644 3.49264L27.4891 5.57135C27.8327 6.71461 28.1137 7.67217 28.1137 7.69932C28.1137 7.72648 27.4334 7.71999 26.6017 7.68502C22.1262 7.4964 18.1617 9.6004 16.1579 13.2278C14.0796 16.99 14.7466 21.631 17.8138 24.751C18.599 25.5497 20.4041 26.8548 20.7235 26.8548C20.9075 26.8548 22.4877 25.5604 22.4877 25.4098C22.4877 25.3552 22.1553 25.1662 21.7493 24.9899C21.2943 24.7923 20.6035 24.2879 19.9499 23.6758C18.2605 22.0938 17.5649 20.5487 17.5649 18.3774C17.5649 16.3581 18.2373 14.7483 19.6934 13.2812C21.1794 11.784 23.168 10.9479 25.3007 10.9237C28.1141 10.8918 30.5133 12.0638 32.0427 14.2173C34.0186 16.9995 33.8492 20.4893 31.61 23.138C30.9067 23.97 29.4077 24.9887 28.2946 25.3913C27.5241 25.67 27.4372 25.7494 26.6619 26.8856L25.843 28.0855L26.7386 27.9992C28.067 27.8709 29.5814 27.4365 30.8526 26.8188C32.4399 26.0475 34.4296 24.1737 35.2486 22.6787C37.0323 19.4229 36.9437 15.7386 35.0081 12.6702C34.3556 11.6359 33.0565 10.2651 32.1976 9.70451C31.8854 9.50079 31.6302 9.29746 31.6305 9.25269C31.6308 9.20792 32.6119 8.70616 33.811 8.1375C36.2082 7.0006 36.1525 7.05278 36.7044 5.42763C36.9895 4.58836 37.0051 4.44186 36.8271 4.28052C36.5957 4.07097 28.6162 0.892578 28.3211 0.892578C28.2158 0.892578 28.0297 1.02663 27.9076 1.19061ZM4.16622 9.0283C2.40725 10.7345 0.968262 12.2198 0.968262 12.3288C0.968262 12.625 2.49656 14.2336 2.92076 14.3839C3.1233 14.4557 4.2966 14.5791 5.52799 14.658C6.75952 14.7371 7.78654 14.82 7.81031 14.8424C7.83408 14.8648 7.56882 15.4159 7.22071 16.0672C6.37751 17.6453 6.03138 18.9903 6.03264 20.6835C6.03475 23.5974 7.16262 26.0958 9.35957 28.0539C10.3846 28.9674 10.7867 29.2332 12.0388 29.825C14.1407 30.8184 16.9751 31.1028 19.3744 30.5612C22.6559 29.8202 25.5094 27.4785 26.8014 24.4659C28.3272 20.9085 27.526 16.7465 24.7603 13.8605L24.0088 13.0764L23.1957 13.4847C22.7485 13.7091 22.1882 14.0822 21.9508 14.3137L21.519 14.7347L22.3122 15.3308C23.252 16.0372 24.2791 17.4055 24.7278 18.549C25.127 19.5658 25.2702 21.5445 25.0253 22.6557C24.5728 24.7082 22.8601 26.8078 20.9051 27.7067C17.5821 29.2346 14.2081 28.7314 11.6553 26.3272C9.16998 23.9865 8.59852 20.7901 10.1218 17.7487C10.4616 17.07 10.8672 16.5783 11.8018 15.7117C12.6914 14.887 13.0619 14.4451 13.1345 14.1222C13.1898 13.8762 13.4497 13.1303 13.7121 12.4646C14.3074 10.9548 14.3166 10.7935 13.8026 10.9091C13.0224 11.0848 11.5728 11.642 11.047 11.9685C10.7498 12.153 10.4867 12.2847 10.4624 12.261C10.4381 12.2373 10.3128 11.3536 10.1838 10.2973C10.0549 9.2409 9.88617 8.18373 9.80881 7.94795C9.65494 7.47944 7.94168 5.92608 7.57881 5.92608C7.46066 5.92608 5.92504 7.32208 4.16622 9.0283Z" fill="url(#paint0_linear_263_1004)"/>
<defs>
<linearGradient id="paint0_linear_263_1004" x1="18.9558" y1="0.892578" x2="18.9558" y2="30.8318" gradientUnits="userSpaceOnUse">
<stop stop-color="#F77433"/>
<stop offset="1" stop-color="#FEAF38"/>
</linearGradient>
</defs>
</svg>
